<?xml version="1.0" encoding="iso-8859-1"?>
<!-- Generator: Adobe Illustrator 19.0.0, SVG Export Plug-In . SVG Version: 6.00 Build 0)  -->
<svg version="1.1" id="Layer_1" xmlns="http://www.w3.org/2000/svg" xmlns:xlink="http://www.w3.org/1999/xlink" x="0px" y="0px"
	 viewBox="0 0 512.013 512.013" style="enable-background:new 0 0 512.013 512.013;" xml:space="preserve">
<g>
	<g>
		<path d="M404.056,33.289c-87.531-34.603-186.88,8.512-221.44,96.021c-2.176,5.483,0.512,11.669,5.995,13.824
			c5.461,2.176,11.669-0.512,13.824-6.016c30.251-76.565,117.205-114.24,193.771-84.011
			c76.565,30.251,114.261,117.184,84.011,193.771c-22.677,57.408-77.184,94.507-138.88,94.507
			c-66.453,0-324.032-104.853-326.635-105.92c-5.461-2.219-11.669,0.384-13.909,5.845c-2.219,5.461,0.384,11.691,5.845,13.909
			c10.752,4.395,264.085,107.499,334.699,107.499c70.507,0,132.821-42.389,158.72-107.989
			C534.658,167.198,491.586,67.87,404.056,33.289z"/>
	</g>
</g>
<g>
	<g>
		<path d="M501.336,181.342c-5.888,0-10.667,4.779-10.667,10.667v288c0,5.888,4.779,10.667,10.667,10.667
			c5.888,0,10.667-4.757,10.667-10.667v-288C512.002,186.121,507.223,181.342,501.336,181.342z"/>
	</g>
</g>
<g>
	<g>
		<path d="M10.669,234.676c-5.888,0-10.667,4.779-10.667,10.667v234.667c0,5.909,4.779,10.667,10.667,10.667
			s10.667-4.757,10.667-10.667V245.342C21.335,239.454,16.557,234.676,10.669,234.676z"/>
	</g>
</g>
<g>
	<g>
		<path d="M437.336,320.009c-5.888,0-10.667,4.779-10.667,10.667v149.333c0,5.888,4.779,10.667,10.667,10.667
			c5.888,0,10.667-4.757,10.667-10.667V330.676C448.002,324.788,443.223,320.009,437.336,320.009z"/>
	</g>
</g>
<g>
	<g>
		<path d="M373.336,352.009c-5.888,0-10.667,4.779-10.667,10.667v117.333c0,5.888,4.779,10.667,10.667,10.667
			c5.888,0,10.667-4.757,10.667-10.667V362.676C384.002,356.788,379.223,352.009,373.336,352.009z"/>
	</g>
</g>
<g>
	<g>
		<path d="M74.669,266.676c-5.888,0-10.667,4.779-10.667,10.667v202.667c0,5.909,4.779,10.667,10.667,10.667
			s10.667-4.757,10.667-10.667V277.342C85.335,271.454,80.557,266.676,74.669,266.676z"/>
	</g>
</g>
<g>
	<g>
		<path d="M309.335,341.342c-5.888,0-10.667,4.779-10.667,10.667v128c0,5.888,4.779,10.667,10.667,10.667
			s10.667-4.757,10.667-10.667v-128C320.002,346.121,315.223,341.342,309.335,341.342z"/>
	</g>
</g>
<g>
	<g>
		<path d="M224.002,320.009c-5.888,0-10.667,4.779-10.667,10.667v149.333c0,5.888,4.779,10.667,10.667,10.667
			s10.667-4.757,10.667-10.667V330.676C234.669,324.788,229.89,320.009,224.002,320.009z"/>
	</g>
</g>
<g>
	<g>
		<path d="M138.669,298.676c-5.888,0-10.667,4.779-10.667,10.667v170.667c0,5.909,4.779,10.667,10.667,10.667
			s10.667-4.757,10.667-10.667V309.342C149.335,303.454,144.557,298.676,138.669,298.676z"/>
	</g>
</g>
<g>
	<g>
		<path d="M458.669,74.676c-5.888,0-10.667,4.779-10.667,10.667v160c0,5.888,4.779,10.667,10.667,10.667s10.667-4.757,10.667-10.667
			v-160C469.336,79.454,464.557,74.676,458.669,74.676z"/>
	</g>
</g>
<g>
	<g>
		<path d="M394.669,32.009c-5.888,0-10.667,4.779-10.667,10.667v256c0,5.888,4.779,10.667,10.667,10.667s10.667-4.757,10.667-10.667
			v-256C405.336,36.788,400.557,32.009,394.669,32.009z"/>
	</g>
</g>
<g>
	<g>
		<path d="M309.335,32.009c-5.888,0-10.667,4.779-10.667,10.667v266.667c0,5.888,4.779,10.667,10.667,10.667
			s10.667-4.757,10.667-10.667V42.676C320.002,36.788,315.223,32.009,309.335,32.009z"/>
	</g>
</g>
<g>
	<g>
		<path d="M245.335,64.009c-5.888,0-10.667,4.779-10.667,10.667v85.333c0,5.909,4.779,10.667,10.667,10.667
			s10.667-4.757,10.667-10.667V74.676C256.002,68.788,251.223,64.009,245.335,64.009z"/>
	</g>
</g>
<g>
	<g>
		<path d="M0.002,157.897v44.779c0,4.48,2.795,8.491,7.019,10.027l52.459,19.072l12.608-47.317L0.002,157.897z"/>
	</g>
</g>
<g>
	<g>
		<path d="M14.637,86.11c-3.264-1.301-6.997-0.896-9.941,1.067c-2.923,1.984-4.693,5.291-4.693,8.832v39.147l77.611,28.608
			l12.651-47.403L14.637,86.11z"/>
	</g>
</g>
<g>
	<g>
		<path d="M255.234,283.102l-6.571-32.875c-9.6-48-42.453-87.509-87.915-105.685l-50.56-20.224l-12.48,46.848l87.317,32.171
			c5.525,2.048,8.363,8.171,6.315,13.696c-1.579,4.309-5.653,6.976-10.005,6.976c-1.237,0-2.475-0.213-3.691-0.661l-85.461-31.488
			l-12.587,47.232l162.091,58.944c1.195,0.427,2.411,0.64,3.648,0.64c0.064,0,0.149,0,0.213,0c5.248-0.235,10.88-4.693,10.88-10.667
			C256.429,286.238,256.002,284.574,255.234,283.102z"/>
	</g>
</g>
<g>
</g>
<g>
</g>
<g>
</g>
<g>
</g>
<g>
</g>
<g>
</g>
<g>
</g>
<g>
</g>
<g>
</g>
<g>
</g>
<g>
</g>
<g>
</g>
<g>
</g>
<g>
</g>
<g>
</g>
</svg>
